<mxfile host="app.diagrams.net" modified="2022-06-07T11:06:24.059Z" agent="5.0 (Windows NT 10.0; Win64; x64) AppleWebKit/537.36 (KHTML, like Gecko) Chrome/101.0.4951.41 Safari/537.36" etag="C_Un-H579SiP0WL3KjEj" version="18.1.3" type="github">
  <diagram id="6t_WaDCt6x7YVjqbkjfq" name="Page-1">
    <mxGraphModel dx="1985" dy="1863" grid="1" gridSize="10" guides="1" tooltips="1" connect="1" arrows="1" fold="1" page="1" pageScale="1" pageWidth="850" pageHeight="1100" math="0" shadow="0">
      <root>
        <mxCell id="0" />
        <mxCell id="1" parent="0" />
        <mxCell id="Sj49qLcoZEn-vy82H97Q-1" value="" style="endArrow=none;html=1;rounded=0;targetPerimeterSpacing=0;sketch=1;strokeWidth=2;" parent="1" edge="1">
          <mxGeometry width="50" height="50" relative="1" as="geometry">
            <mxPoint x="240" y="480" as="sourcePoint" />
            <mxPoint x="240" y="160" as="targetPoint" />
          </mxGeometry>
        </mxCell>
        <mxCell id="Sj49qLcoZEn-vy82H97Q-2" value="" style="endArrow=none;html=1;rounded=0;sketch=1;strokeWidth=2;" parent="1" edge="1">
          <mxGeometry width="50" height="50" relative="1" as="geometry">
            <mxPoint x="220" y="460" as="sourcePoint" />
            <mxPoint x="680" y="460" as="targetPoint" />
          </mxGeometry>
        </mxCell>
        <mxCell id="Sj49qLcoZEn-vy82H97Q-3" value="&lt;font style=&quot;font-size: 15px;&quot; data-font-src=&quot;https://fonts.google.com/specimen/Amatic+SC&quot;&gt;Time&lt;/font&gt;" style="text;html=1;strokeColor=none;fillColor=none;align=center;verticalAlign=middle;whiteSpace=wrap;rounded=0;sketch=1;" parent="1" vertex="1">
          <mxGeometry x="420" y="470" width="60" height="30" as="geometry" />
        </mxCell>
        <mxCell id="Sj49qLcoZEn-vy82H97Q-5" value="" style="shape=image;html=1;verticalAlign=top;verticalLabelPosition=bottom;labelBackgroundColor=#ffffff;imageAspect=0;aspect=fixed;image=https://cdn4.iconfinder.com/data/icons/ionicons/512/icon-ios7-plus-empty-128.png;sketch=1;fontFamily=Helvetica;fontSize=15;rotation=30;" parent="1" vertex="1">
          <mxGeometry x="360" y="360" width="28" height="28" as="geometry" />
        </mxCell>
        <mxCell id="Sj49qLcoZEn-vy82H97Q-6" value="" style="shape=image;html=1;verticalAlign=top;verticalLabelPosition=bottom;labelBackgroundColor=#ffffff;imageAspect=0;aspect=fixed;image=https://cdn4.iconfinder.com/data/icons/ionicons/512/icon-ios7-plus-empty-128.png;sketch=1;fontFamily=Helvetica;fontSize=15;rotation=30;" parent="1" vertex="1">
          <mxGeometry x="300" y="368" width="28" height="28" as="geometry" />
        </mxCell>
        <mxCell id="Sj49qLcoZEn-vy82H97Q-7" value="" style="shape=image;html=1;verticalAlign=top;verticalLabelPosition=bottom;labelBackgroundColor=#ffffff;imageAspect=0;aspect=fixed;image=https://cdn4.iconfinder.com/data/icons/ionicons/512/icon-ios7-plus-empty-128.png;sketch=1;fontFamily=Helvetica;fontSize=15;rotation=30;" parent="1" vertex="1">
          <mxGeometry x="411" y="340" width="28" height="28" as="geometry" />
        </mxCell>
        <mxCell id="Sj49qLcoZEn-vy82H97Q-8" value="" style="shape=image;html=1;verticalAlign=top;verticalLabelPosition=bottom;labelBackgroundColor=#ffffff;imageAspect=0;aspect=fixed;image=https://cdn4.iconfinder.com/data/icons/ionicons/512/icon-ios7-plus-empty-128.png;sketch=1;fontFamily=Helvetica;fontSize=15;rotation=30;" parent="1" vertex="1">
          <mxGeometry x="453.5" y="320" width="28" height="28" as="geometry" />
        </mxCell>
        <mxCell id="Sj49qLcoZEn-vy82H97Q-9" value="" style="shape=image;html=1;verticalAlign=top;verticalLabelPosition=bottom;labelBackgroundColor=#ffffff;imageAspect=0;aspect=fixed;image=https://cdn4.iconfinder.com/data/icons/ionicons/512/icon-ios7-plus-empty-128.png;sketch=1;fontFamily=Helvetica;fontSize=15;rotation=30;" parent="1" vertex="1">
          <mxGeometry x="503.5" y="300" width="28" height="28" as="geometry" />
        </mxCell>
        <mxCell id="Sj49qLcoZEn-vy82H97Q-10" value="" style="shape=image;html=1;verticalAlign=top;verticalLabelPosition=bottom;labelBackgroundColor=#ffffff;imageAspect=0;aspect=fixed;image=https://cdn4.iconfinder.com/data/icons/ionicons/512/icon-ios7-plus-empty-128.png;sketch=1;fontFamily=Helvetica;fontSize=15;rotation=30;" parent="1" vertex="1">
          <mxGeometry x="548" y="290" width="28" height="28" as="geometry" />
        </mxCell>
        <mxCell id="Sj49qLcoZEn-vy82H97Q-11" value="" style="endArrow=classic;dashed=1;html=1;rounded=0;sketch=1;fontFamily=Helvetica;fontSize=15;targetPerimeterSpacing=0;strokeWidth=2;fillColor=#dae8fc;strokeColor=#6c8ebf;endFill=0;" parent="1" edge="1">
          <mxGeometry width="50" height="50" relative="1" as="geometry">
            <mxPoint x="280.75" y="388" as="sourcePoint" />
            <mxPoint x="610.75" y="296" as="targetPoint" />
          </mxGeometry>
        </mxCell>
        <mxCell id="Sj49qLcoZEn-vy82H97Q-12" value="" style="curved=1;endArrow=classic;html=1;rounded=0;sketch=1;fontFamily=Helvetica;fontSize=15;targetPerimeterSpacing=0;strokeWidth=2;dashed=1;fillColor=#ffe6cc;strokeColor=#d79b00;endFill=0;" parent="1" edge="1">
          <mxGeometry width="50" height="50" relative="1" as="geometry">
            <mxPoint x="270" y="390" as="sourcePoint" />
            <mxPoint x="613" y="250" as="targetPoint" />
            <Array as="points">
              <mxPoint x="512.5" y="350" />
            </Array>
          </mxGeometry>
        </mxCell>
        <mxCell id="Sj49qLcoZEn-vy82H97Q-13" style="edgeStyle=none;rounded=0;sketch=1;orthogonalLoop=1;jettySize=auto;html=1;exitX=0.5;exitY=0;exitDx=0;exitDy=0;dashed=1;fontFamily=Helvetica;fontSize=15;endArrow=classic;endFill=0;targetPerimeterSpacing=0;strokeWidth=2;" parent="1" edge="1">
          <mxGeometry relative="1" as="geometry">
            <mxPoint x="160" y="490" as="sourcePoint" />
            <mxPoint x="160" y="490" as="targetPoint" />
          </mxGeometry>
        </mxCell>
        <mxCell id="Sj49qLcoZEn-vy82H97Q-15" value="" style="shape=image;html=1;verticalAlign=top;verticalLabelPosition=bottom;labelBackgroundColor=#ffffff;imageAspect=0;aspect=fixed;image=https://cdn4.iconfinder.com/data/icons/ionicons/512/icon-ios7-plus-empty-128.png;sketch=1;fontFamily=Helvetica;fontSize=15;rotation=30;" parent="1" vertex="1">
          <mxGeometry x="293.5" y="201" width="28" height="28" as="geometry" />
        </mxCell>
        <mxCell id="Sj49qLcoZEn-vy82H97Q-17" value="" style="endArrow=classic;dashed=1;html=1;rounded=0;sketch=1;fontFamily=Helvetica;fontSize=15;targetPerimeterSpacing=0;strokeWidth=2;fillColor=#dae8fc;strokeColor=#6c8ebf;endFill=0;" parent="1" edge="1">
          <mxGeometry width="50" height="50" relative="1" as="geometry">
            <mxPoint x="273.5" y="263" as="sourcePoint" />
            <mxPoint x="321.5" y="237" as="targetPoint" />
            <Array as="points">
              <mxPoint x="321.5" y="237" />
            </Array>
          </mxGeometry>
        </mxCell>
        <mxCell id="Sj49qLcoZEn-vy82H97Q-18" value="" style="curved=1;endArrow=classic;html=1;rounded=0;sketch=1;fontFamily=Helvetica;fontSize=15;strokeWidth=2;dashed=1;fillColor=#ffe6cc;strokeColor=#d79b00;endFill=0;targetPerimeterSpacing=0;" parent="1" edge="1">
          <mxGeometry width="50" height="50" relative="1" as="geometry">
            <mxPoint x="270" y="290" as="sourcePoint" />
            <mxPoint x="320" y="270" as="targetPoint" />
            <Array as="points">
              <mxPoint x="300" y="300" />
            </Array>
          </mxGeometry>
        </mxCell>
        <mxCell id="Sj49qLcoZEn-vy82H97Q-19" value="Measured data" style="text;html=1;strokeColor=none;fillColor=none;align=left;verticalAlign=middle;whiteSpace=wrap;rounded=0;sketch=1;" parent="1" vertex="1">
          <mxGeometry x="341.5" y="201" width="100" height="30" as="geometry" />
        </mxCell>
        <mxCell id="Sj49qLcoZEn-vy82H97Q-22" value="Linear model Y(t)&amp;nbsp;&amp;nbsp;" style="text;html=1;strokeColor=none;fillColor=none;align=left;verticalAlign=middle;whiteSpace=wrap;rounded=0;sketch=1;" parent="1" vertex="1">
          <mxGeometry x="341.5" y="231" width="208.5" height="30" as="geometry" />
        </mxCell>
        <mxCell id="Sj49qLcoZEn-vy82H97Q-23" value="Non-linear model Y(t)" style="text;html=1;strokeColor=none;fillColor=none;align=left;verticalAlign=middle;whiteSpace=wrap;rounded=0;sketch=1;" parent="1" vertex="1">
          <mxGeometry x="341.5" y="263" width="138.5" height="30" as="geometry" />
        </mxCell>
        <mxCell id="DORE6S0-njbx3apYGcze-20" value="" style="endArrow=none;html=1;rounded=0;targetPerimeterSpacing=0;sketch=1;strokeWidth=2;" edge="1" parent="1">
          <mxGeometry width="50" height="50" relative="1" as="geometry">
            <mxPoint x="240" y="830" as="sourcePoint" />
            <mxPoint x="240" y="510" as="targetPoint" />
          </mxGeometry>
        </mxCell>
        <mxCell id="DORE6S0-njbx3apYGcze-21" value="&lt;font style=&quot;font-size: 15px;&quot; data-font-src=&quot;https://fonts.google.com/specimen/Amatic+SC&quot;&gt;Time&lt;/font&gt;" style="text;html=1;strokeColor=none;fillColor=none;align=center;verticalAlign=middle;whiteSpace=wrap;rounded=0;sketch=1;" vertex="1" parent="1">
          <mxGeometry x="576" y="830" width="60" height="30" as="geometry" />
        </mxCell>
        <mxCell id="DORE6S0-njbx3apYGcze-22" value="" style="shape=image;html=1;verticalAlign=top;verticalLabelPosition=bottom;labelBackgroundColor=#ffffff;imageAspect=0;aspect=fixed;image=https://cdn4.iconfinder.com/data/icons/ionicons/512/icon-ios7-plus-empty-128.png;sketch=1;fontFamily=Helvetica;fontSize=15;rotation=30;" vertex="1" parent="1">
          <mxGeometry x="639" y="706" width="28" height="28" as="geometry" />
        </mxCell>
        <mxCell id="DORE6S0-njbx3apYGcze-23" value="" style="shape=image;html=1;verticalAlign=top;verticalLabelPosition=bottom;labelBackgroundColor=#ffffff;imageAspect=0;aspect=fixed;image=https://cdn4.iconfinder.com/data/icons/ionicons/512/icon-ios7-plus-empty-128.png;sketch=1;fontFamily=Helvetica;fontSize=15;rotation=30;" vertex="1" parent="1">
          <mxGeometry x="620" y="711.37" width="28" height="28" as="geometry" />
        </mxCell>
        <mxCell id="DORE6S0-njbx3apYGcze-24" value="" style="shape=image;html=1;verticalAlign=top;verticalLabelPosition=bottom;labelBackgroundColor=#ffffff;imageAspect=0;aspect=fixed;image=https://cdn4.iconfinder.com/data/icons/ionicons/512/icon-ios7-plus-empty-128.png;sketch=1;fontFamily=Helvetica;fontSize=15;rotation=30;" vertex="1" parent="1">
          <mxGeometry x="660" y="700" width="28" height="28" as="geometry" />
        </mxCell>
        <mxCell id="DORE6S0-njbx3apYGcze-25" value="" style="shape=image;html=1;verticalAlign=top;verticalLabelPosition=bottom;labelBackgroundColor=#ffffff;imageAspect=0;aspect=fixed;image=https://cdn4.iconfinder.com/data/icons/ionicons/512/icon-ios7-plus-empty-128.png;sketch=1;fontFamily=Helvetica;fontSize=15;rotation=30;" vertex="1" parent="1">
          <mxGeometry x="680" y="700" width="28" height="28" as="geometry" />
        </mxCell>
        <mxCell id="DORE6S0-njbx3apYGcze-26" value="" style="shape=image;html=1;verticalAlign=top;verticalLabelPosition=bottom;labelBackgroundColor=#ffffff;imageAspect=0;aspect=fixed;image=https://cdn4.iconfinder.com/data/icons/ionicons/512/icon-ios7-plus-empty-128.png;sketch=1;fontFamily=Helvetica;fontSize=15;rotation=30;" vertex="1" parent="1">
          <mxGeometry x="700" y="685" width="28" height="28" as="geometry" />
        </mxCell>
        <mxCell id="DORE6S0-njbx3apYGcze-27" value="" style="shape=image;html=1;verticalAlign=top;verticalLabelPosition=bottom;labelBackgroundColor=#ffffff;imageAspect=0;aspect=fixed;image=https://cdn4.iconfinder.com/data/icons/ionicons/512/icon-ios7-plus-empty-128.png;sketch=1;fontFamily=Helvetica;fontSize=15;rotation=30;" vertex="1" parent="1">
          <mxGeometry x="720.93" y="679.61" width="22.93" height="22.93" as="geometry" />
        </mxCell>
        <mxCell id="DORE6S0-njbx3apYGcze-28" value="" style="endArrow=classic;dashed=1;html=1;rounded=0;sketch=1;fontFamily=Helvetica;fontSize=15;targetPerimeterSpacing=0;strokeWidth=2;fillColor=#dae8fc;strokeColor=#6c8ebf;endFill=0;" edge="1" parent="1">
          <mxGeometry width="50" height="50" relative="1" as="geometry">
            <mxPoint x="240" y="800" as="sourcePoint" />
            <mxPoint x="1170" y="609" as="targetPoint" />
          </mxGeometry>
        </mxCell>
        <mxCell id="DORE6S0-njbx3apYGcze-29" value="" style="curved=1;endArrow=classic;html=1;rounded=0;sketch=1;fontFamily=Helvetica;fontSize=15;targetPerimeterSpacing=0;strokeWidth=2;dashed=1;fillColor=#ffe6cc;strokeColor=#d79b00;endFill=0;" edge="1" parent="1">
          <mxGeometry width="50" height="50" relative="1" as="geometry">
            <mxPoint x="239" y="800" as="sourcePoint" />
            <mxPoint x="1149" y="280" as="targetPoint" />
            <Array as="points">
              <mxPoint x="349" y="790" />
              <mxPoint x="831.5" y="690" />
              <mxPoint x="909" y="300" />
            </Array>
          </mxGeometry>
        </mxCell>
        <mxCell id="DORE6S0-njbx3apYGcze-30" style="edgeStyle=none;rounded=0;sketch=1;orthogonalLoop=1;jettySize=auto;html=1;exitX=0.5;exitY=0;exitDx=0;exitDy=0;dashed=1;fontFamily=Helvetica;fontSize=15;endArrow=classic;endFill=0;targetPerimeterSpacing=0;strokeWidth=2;" edge="1" parent="1">
          <mxGeometry relative="1" as="geometry">
            <mxPoint x="-140" y="713.5" as="sourcePoint" />
            <mxPoint x="-140" y="713.5" as="targetPoint" />
          </mxGeometry>
        </mxCell>
        <mxCell id="DORE6S0-njbx3apYGcze-31" value="" style="shape=image;html=1;verticalAlign=top;verticalLabelPosition=bottom;labelBackgroundColor=#ffffff;imageAspect=0;aspect=fixed;image=https://cdn4.iconfinder.com/data/icons/ionicons/512/icon-ios7-plus-empty-128.png;sketch=1;fontFamily=Helvetica;fontSize=15;rotation=30;" vertex="1" parent="1">
          <mxGeometry x="303.5" y="536.5" width="28" height="28" as="geometry" />
        </mxCell>
        <mxCell id="DORE6S0-njbx3apYGcze-32" value="" style="endArrow=classic;dashed=1;html=1;rounded=0;sketch=1;fontFamily=Helvetica;fontSize=15;targetPerimeterSpacing=0;strokeWidth=2;fillColor=#dae8fc;strokeColor=#6c8ebf;endFill=0;" edge="1" parent="1">
          <mxGeometry width="50" height="50" relative="1" as="geometry">
            <mxPoint x="283.5000000000001" y="598.5" as="sourcePoint" />
            <mxPoint x="331.4999999999999" y="572.5" as="targetPoint" />
            <Array as="points">
              <mxPoint x="331.5" y="572.5" />
            </Array>
          </mxGeometry>
        </mxCell>
        <mxCell id="DORE6S0-njbx3apYGcze-33" value="" style="curved=1;endArrow=classic;html=1;rounded=0;sketch=1;fontFamily=Helvetica;fontSize=15;strokeWidth=2;dashed=1;fillColor=#ffe6cc;strokeColor=#d79b00;endFill=0;targetPerimeterSpacing=0;" edge="1" parent="1">
          <mxGeometry width="50" height="50" relative="1" as="geometry">
            <mxPoint x="280" y="625.5" as="sourcePoint" />
            <mxPoint x="330" y="605.5" as="targetPoint" />
            <Array as="points">
              <mxPoint x="310" y="635.5" />
            </Array>
          </mxGeometry>
        </mxCell>
        <mxCell id="DORE6S0-njbx3apYGcze-34" value="Measured data" style="text;html=1;strokeColor=none;fillColor=none;align=left;verticalAlign=middle;whiteSpace=wrap;rounded=0;sketch=1;" vertex="1" parent="1">
          <mxGeometry x="351.5" y="536.5" width="100" height="30" as="geometry" />
        </mxCell>
        <mxCell id="DORE6S0-njbx3apYGcze-35" value="Linear model Y(t)&amp;nbsp;&amp;nbsp;" style="text;html=1;strokeColor=none;fillColor=none;align=left;verticalAlign=middle;whiteSpace=wrap;rounded=0;sketch=1;" vertex="1" parent="1">
          <mxGeometry x="351.5" y="564.5" width="208.5" height="30" as="geometry" />
        </mxCell>
        <mxCell id="DORE6S0-njbx3apYGcze-36" value="Non-linear model Y(t)" style="text;html=1;strokeColor=none;fillColor=none;align=left;verticalAlign=middle;whiteSpace=wrap;rounded=0;sketch=1;" vertex="1" parent="1">
          <mxGeometry x="351.5" y="598.5" width="138.5" height="30" as="geometry" />
        </mxCell>
        <mxCell id="DORE6S0-njbx3apYGcze-37" value="" style="endArrow=none;html=1;rounded=0;sketch=1;strokeWidth=2;" edge="1" parent="1">
          <mxGeometry width="50" height="50" relative="1" as="geometry">
            <mxPoint x="220" y="802" as="sourcePoint" />
            <mxPoint x="1254" y="802" as="targetPoint" />
          </mxGeometry>
        </mxCell>
        <mxCell id="DORE6S0-njbx3apYGcze-51" value="" style="shape=trapezoid;perimeter=trapezoidPerimeter;whiteSpace=wrap;html=1;fixedSize=1;rotation=-211;size=95.06999999999994;gradientColor=#B3B3B3;gradientDirection=north;opacity=20;strokeColor=none;" vertex="1" parent="1">
          <mxGeometry x="415.08" y="264.73" width="290" height="489.37" as="geometry" />
        </mxCell>
      </root>
    </mxGraphModel>
  </diagram>
</mxfile>
